<?xml version="1.0" encoding="UTF-8"?>
<svg xmlns="http://www.w3.org/2000/svg" xmlns:xlink="http://www.w3.org/1999/xlink" width="192px" height="192px" viewBox="0 0 192 192" version="1.1">
<g id="surface1">
<path style=" stroke:none;fill-rule:nonzero;fill:rgb(100%,40.392157%,11.372549%);fill-opacity:1;" d="M 96 6 C 46.296875 6 6 46.296875 6 96 C 6 145.703125 46.296875 186 96 186 C 145.703125 186 186 145.703125 186 96 C 186 46.296875 145.703125 6 96 6 M 138.105469 139.523438 L 121.15625 139.523438 L 121.15625 80.644531 C 121.15625 78.953125 121.179688 76.582031 121.214844 73.53125 C 121.257812 70.476562 121.273438 68.125 121.273438 66.472656 L 104.78125 139.523438 L 87.101562 139.523438 L 70.726562 66.472656 C 70.726562 68.125 70.742188 70.476562 70.785156 73.53125 C 70.828125 76.582031 70.84375 78.953125 70.84375 80.644531 L 70.84375 139.523438 L 53.894531 139.523438 L 53.894531 52.476562 L 80.367188 52.476562 L 96.210938 120.917969 L 111.9375 52.476562 L 138.109375 52.476562 L 138.109375 139.523438 Z M 138.105469 139.523438 "/>
</g>
</svg>
