<?xml version="1.0" encoding="UTF-8"?>
<svg xmlns="http://www.w3.org/2000/svg" xmlns:xlink="http://www.w3.org/1999/xlink" width="512px" height="512px" viewBox="0 0 512 512" version="1.1">
<g id="surface1">
<path style=" stroke:none;fill-rule:nonzero;fill:rgb(100%,40.392157%,11.372549%);fill-opacity:1;" d="M 256 16 C 123.457031 16 16 123.457031 16 256 C 16 388.542969 123.457031 496 256 496 C 388.542969 496 496 388.542969 496 256 C 496 123.457031 388.542969 16 256 16 M 368.28125 372.0625 L 323.078125 372.0625 L 323.078125 215.054688 C 323.078125 210.542969 323.144531 204.214844 323.238281 196.078125 C 323.351562 187.9375 323.398438 181.664062 323.398438 177.257812 L 279.414062 372.0625 L 232.273438 372.0625 L 188.601562 177.257812 C 188.601562 181.664062 188.648438 187.9375 188.761719 196.078125 C 188.871094 204.214844 188.921875 210.542969 188.921875 215.054688 L 188.921875 372.0625 L 143.71875 372.0625 L 143.71875 139.9375 L 214.3125 139.9375 L 256.558594 322.449219 L 298.496094 139.9375 L 368.296875 139.9375 L 368.296875 372.0625 Z M 368.28125 372.0625 "/>
</g>
</svg>
