<?xml version="1.0" encoding="UTF-8"?>
<svg xmlns="http://www.w3.org/2000/svg" xmlns:xlink="http://www.w3.org/1999/xlink" width="96px" height="96px" viewBox="0 0 96 96" version="1.1">
<g id="surface1">
<path style=" stroke:none;fill-rule:nonzero;fill:rgb(100%,40.392157%,11.372549%);fill-opacity:1;" d="M 48 3 C 23.148438 3 3 23.148438 3 48 C 3 72.851562 23.148438 93 48 93 C 72.851562 93 93 72.851562 93 48 C 93 23.148438 72.851562 3 48 3 M 69.050781 69.761719 L 60.578125 69.761719 L 60.578125 40.324219 C 60.578125 39.476562 60.589844 38.289062 60.609375 36.765625 C 60.628906 35.238281 60.636719 34.0625 60.636719 33.234375 L 52.390625 69.761719 L 43.550781 69.761719 L 35.363281 33.234375 C 35.363281 34.0625 35.371094 35.238281 35.390625 36.765625 C 35.414062 38.289062 35.421875 39.476562 35.421875 40.324219 L 35.421875 69.761719 L 26.949219 69.761719 L 26.949219 26.238281 L 40.183594 26.238281 L 48.105469 60.460938 L 55.96875 26.238281 L 69.054688 26.238281 L 69.054688 69.761719 Z M 69.050781 69.761719 "/>
</g>
</svg>
